<svg width="24" height="24" viewBox="0 0 24 24" fill="none" xmlns="http://www.w3.org/2000/svg">
<path d="M20.8477 20.236C20.8477 20.7882 20.3999 21.236 19.8477 21.236H3.84766C3.29537 21.236 2.84766 20.7882 2.84766 20.236V9.23596H20.8477V20.236ZM6.84766 16.736C6.29537 16.736 5.84766 17.1837 5.84766 17.736C5.84766 18.2882 6.29537 18.736 6.84766 18.736H11.8477C12.3999 18.736 12.8477 18.2882 12.8477 17.736C12.8477 17.1837 12.3999 16.736 11.8477 16.736H6.84766ZM19.8477 3.73596C20.3999 3.73596 20.8477 4.18368 20.8477 4.73596V7.73596H2.84766V4.73596C2.84766 4.18368 3.29537 3.73596 3.84766 3.73596H19.8477Z" fill="white"/>
</svg>
