<svg width="24" height="24" viewBox="0 0 24 24" fill="none" xmlns="http://www.w3.org/2000/svg">
<path d="M7 2.5C7.55228 2.5 8 2.94772 8 3.5V5.5H16V3.5C16 2.94772 16.4477 2.5 17 2.5H18C18.5523 2.5 19 2.94772 19 3.5V5.5H19.5C20.3284 5.5 21 6.17157 21 7V20C21 20.8284 20.3284 21.5 19.5 21.5H4.5C3.67157 21.5 3 20.8284 3 20V7C3 6.17157 3.67157 5.5 4.5 5.5H5V3.5C5 2.94772 5.44772 2.5 6 2.5H7ZM5.5 10.5C5.22386 10.5 5 10.7239 5 11V19C5 19.2761 5.22386 19.5 5.5 19.5H18.5C18.7761 19.5 19 19.2761 19 19V11C19 10.7239 18.7761 10.5 18.5 10.5H5.5ZM8.71875 12C9.82332 12 10.7188 12.8954 10.7188 14C10.7188 15.1046 9.82332 16 8.71875 16C7.61418 16 6.71875 15.1046 6.71875 14C6.71875 12.8954 7.61418 12 8.71875 12Z" fill="white"/>
</svg>
