<svg width="24" height="24" viewBox="0 0 24 24" fill="none" xmlns="http://www.w3.org/2000/svg">
<path fill-rule="evenodd" clip-rule="evenodd" d="M10.0645 12.8715C10.6167 12.8715 11.0645 13.3192 11.0645 13.8715V19.8715C11.0643 20.4236 10.6167 20.8715 10.0645 20.8715H4.06445C3.51225 20.8715 3.06459 20.4236 3.06445 19.8715V13.8715C3.06445 13.3192 3.51217 12.8715 4.06445 12.8715H10.0645ZM19.5645 12.8715C20.1167 12.8715 20.5645 13.3192 20.5645 13.8715V19.8715C20.5643 20.4236 20.1167 20.8715 19.5645 20.8715H13.5645C13.0122 20.8715 12.5646 20.4236 12.5645 19.8715V13.8715C12.5645 13.3192 13.0122 12.8715 13.5645 12.8715H19.5645ZM15.8574 2.42127C16.248 2.03107 16.8811 2.03085 17.2715 2.42127L21.5137 6.66443C21.9041 7.05497 21.9042 7.688 21.5137 8.0785L17.2715 12.3207C16.881 12.7112 16.248 12.7111 15.8574 12.3207L11.6143 8.0785C11.2238 7.68804 11.2239 7.05497 11.6143 6.66443L15.8574 2.42127ZM10.0645 3.37147C10.6167 3.37147 11.0645 3.81918 11.0645 4.37147V10.3715C11.0643 10.9236 10.6167 11.3715 10.0645 11.3715H4.06445C3.51225 11.3715 3.06459 10.9236 3.06445 10.3715V4.37147C3.06445 3.81918 3.51217 3.37147 4.06445 3.37147H10.0645Z" fill="white"/>
</svg>
