<svg width="24" height="24" viewBox="0 0 24 24" fill="none" xmlns="http://www.w3.org/2000/svg">
<path d="M11.9951 2.98596C15.2604 2.98596 18.0366 5.0733 19.0664 7.98596H19.499C20.6036 7.98596 21.499 8.88139 21.499 9.98596V11.986C21.499 13.0905 20.6036 13.986 19.499 13.986H19.4951V14.486C19.4951 18.6281 16.1373 21.986 11.9951 21.986C11.4428 21.986 10.9951 21.5382 10.9951 20.986C10.9951 20.4337 11.4428 19.986 11.9951 19.986C15.0327 19.986 17.4951 17.5235 17.4951 14.486V10.486C17.4951 7.4484 15.0327 4.98596 11.9951 4.98596C9.03904 4.98596 6.62823 7.31807 6.50098 10.2428V12.986C6.50098 13.5382 6.05326 13.986 5.50098 13.986H4.50098C3.39641 13.986 2.50098 13.0905 2.50098 11.986V9.98596C2.50098 8.88139 3.39641 7.98596 4.50098 7.98596H4.92383C5.95359 5.0733 8.7298 2.98596 11.9951 2.98596ZM14.3564 14.986C14.4356 14.9862 14.4998 15.0503 14.5 15.1295C14.5 16.4277 13.4476 17.481 12.1494 17.4811H11.8506C10.5524 17.481 9.5 16.4277 9.5 15.1295C9.5002 15.0503 9.56436 14.9862 9.64355 14.986H14.3564Z" fill="white"/>
</svg>
