<svg width="24" height="24" viewBox="0 0 24 24" fill="none" xmlns="http://www.w3.org/2000/svg">
<path d="M19 2.5C19.8284 2.5 20.5 3.17157 20.5 4V20C20.5 20.8284 19.8284 21.5 19 21.5H5C4.17157 21.5 3.5 20.8284 3.5 20V4C3.5 3.17157 4.17157 2.5 5 2.5H19ZM13 5.5C12.7239 5.5 12.5 5.72386 12.5 6V11.876C12.5001 12.1273 12.7909 12.2672 12.9873 12.1104L14.8125 10.6504C14.9221 10.5627 15.0779 10.5627 15.1875 10.6504L17.0127 12.1104C17.2091 12.2672 17.4999 12.1273 17.5 11.876V6C17.5 5.72386 17.2761 5.5 17 5.5H13Z" fill="white"/>
</svg>
